<?xml version="1.0" encoding="iso-8859-1"?>
<!-- Generator: Adobe Illustrator 18.0.0, SVG Export Plug-In . SVG Version: 6.00 Build 0)  -->
<!DOCTYPE svg PUBLIC "-//W3C//DTD SVG 1.1//EN" "http://www.w3.org/Graphics/SVG/1.1/DTD/svg11.dtd">
<svg version="1.1" id="Capa_1" xmlns="http://www.w3.org/2000/svg" xmlns:xlink="http://www.w3.org/1999/xlink" x="0px" y="0px"
	 viewBox="0 0 436 436" style="enable-background:new 0 0 436 436;" xml:space="preserve">
<g>
	<path d="M145.871,131.899l31.447,12.127l-0.851,6.743c-0.462,3.632,1.308,7.17,4.516,9.045c6.812,4.212,27.32,14.072,33.898,15.682
		c1.157,0.318,2.345,0.477,3.533,0.477s2.376-0.159,3.533-0.477c6.574-1.608,27.085-11.468,33.9-15.683
		c3.209-1.875,4.979-5.414,4.517-9.042l-0.891-7.051l30.657-11.822c2.008-0.774,3.295-2.746,3.196-4.895
		c-0.099-2.15-1.562-3.995-3.632-4.581l-70.331-19.915c-0.891-0.252-1.834-0.252-2.725,0l-70.33,19.915
		c-2.07,0.586-3.533,2.432-3.632,4.581S143.863,131.125,145.871,131.899z M250.368,151.444c-6.675,4.07-25.876,13.177-30.829,14.347
		c-0.073,0.017-0.145,0.036-0.216,0.056c-0.587,0.167-1.232,0.167-1.819,0c-0.071-0.02-0.143-0.039-0.215-0.056
		c-4.956-1.172-24.155-10.278-30.828-14.347l0.468-3.711l29.272,11.288c0.579,0.223,1.189,0.335,1.799,0.335s1.22-0.112,1.799-0.335
		l30.063-11.593L250.368,151.444z M218,112.517l54.547,15.445L218,148.997l-54.547-21.035L218,112.517z"/>
	<path d="M431,79H5c-2.761,0-5,2.239-5,5v268c0,2.761,2.239,5,5,5h426c2.761,0,5-2.239,5-5V84C436,81.239,433.761,79,431,79z
		 M426,347H10V89h416V347z"/>
	<path d="M35,119h65.968c2.761,0,5-2.239,5-5s-2.239-5-5-5H35c-2.761,0-5,2.239-5,5S32.239,119,35,119z"/>
	<path d="M35,139.6h65.968c2.761,0,5-2.239,5-5s-2.239-5-5-5H35c-2.761,0-5,2.239-5,5S32.239,139.6,35,139.6z"/>
	<path d="M35,160.2h65.968c2.761,0,5-2.239,5-5s-2.239-5-5-5H35c-2.761,0-5,2.239-5,5S32.239,160.2,35,160.2z"/>
	<path d="M35,180.8h65.968c2.761,0,5-2.239,5-5s-2.239-5-5-5H35c-2.761,0-5,2.239-5,5S32.239,180.8,35,180.8z"/>
	<path d="M35,242.6h65.968c2.761,0,5-2.239,5-5v-41.2c0-2.761-2.239-5-5-5H35c-2.761,0-5,2.239-5,5v41.2
		C30,240.361,32.239,242.6,35,242.6z M40,201.4h55.968v31.2H40V201.4z"/>
	<path d="M35,263.2h65.968c2.761,0,5-2.239,5-5s-2.239-5-5-5H35c-2.761,0-5,2.239-5,5S32.239,263.2,35,263.2z"/>
	<path d="M35,283.8h65.968c2.761,0,5-2.239,5-5s-2.239-5-5-5H35c-2.761,0-5,2.239-5,5S32.239,283.8,35,283.8z"/>
	<path d="M35,304.4h65.968c2.761,0,5-2.239,5-5s-2.239-5-5-5H35c-2.761,0-5,2.239-5,5S32.239,304.4,35,304.4z"/>
	<path d="M35,325h65.968c2.761,0,5-2.239,5-5s-2.239-5-5-5H35c-2.761,0-5,2.239-5,5S32.239,325,35,325z"/>
	<path d="M134.344,201.4h65.968c2.761,0,5-2.239,5-5s-2.239-5-5-5h-65.968c-2.761,0-5,2.239-5,5S131.583,201.4,134.344,201.4z"/>
	<path d="M134.344,222h65.968c2.761,0,5-2.239,5-5s-2.239-5-5-5h-65.968c-2.761,0-5,2.239-5,5S131.583,222,134.344,222z"/>
	<path d="M134.344,242.6h65.968c2.761,0,5-2.239,5-5s-2.239-5-5-5h-65.968c-2.761,0-5,2.239-5,5S131.583,242.6,134.344,242.6z"/>
	<path d="M134.344,263.2h65.968c2.761,0,5-2.239,5-5s-2.239-5-5-5h-65.968c-2.761,0-5,2.239-5,5S131.583,263.2,134.344,263.2z"/>
	<path d="M134.344,283.8h65.968c2.761,0,5-2.239,5-5s-2.239-5-5-5h-65.968c-2.761,0-5,2.239-5,5S131.583,283.8,134.344,283.8z"/>
	<path d="M134.344,304.4h65.968c2.761,0,5-2.239,5-5s-2.239-5-5-5h-65.968c-2.761,0-5,2.239-5,5S131.583,304.4,134.344,304.4z"/>
	<path d="M134.344,325h65.968c2.761,0,5-2.239,5-5s-2.239-5-5-5h-65.968c-2.761,0-5,2.239-5,5S131.583,325,134.344,325z"/>
	<path d="M228.688,196.4c0,2.761,2.239,5,5,5h65.968c2.761,0,5-2.239,5-5s-2.239-5-5-5h-65.968
		C230.926,191.4,228.688,193.639,228.688,196.4z"/>
	<path d="M299.656,212h-65.968c-2.761,0-5,2.239-5,5s2.239,5,5,5h65.968c2.761,0,5-2.239,5-5S302.417,212,299.656,212z"/>
	<path d="M299.656,232.6h-65.968c-2.761,0-5,2.239-5,5s2.239,5,5,5h65.968c2.761,0,5-2.239,5-5S302.417,232.6,299.656,232.6z"/>
	<path d="M299.656,253.2h-65.968c-2.761,0-5,2.239-5,5s2.239,5,5,5h65.968c2.761,0,5-2.239,5-5S302.417,253.2,299.656,253.2z"/>
	<path d="M299.656,273.8h-65.968c-2.761,0-5,2.239-5,5s2.239,5,5,5h65.968c2.761,0,5-2.239,5-5S302.417,273.8,299.656,273.8z"/>
	<path d="M299.656,294.4h-65.968c-2.761,0-5,2.239-5,5s2.239,5,5,5h65.968c2.761,0,5-2.239,5-5S302.417,294.4,299.656,294.4z"/>
	<path d="M299.656,315h-65.968c-2.761,0-5,2.239-5,5s2.239,5,5,5h65.968c2.761,0,5-2.239,5-5S302.417,315,299.656,315z"/>
	<path d="M333.032,119H399c2.761,0,5-2.239,5-5s-2.239-5-5-5h-65.968c-2.761,0-5,2.239-5,5S330.271,119,333.032,119z"/>
	<path d="M333.032,139.6H399c2.761,0,5-2.239,5-5s-2.239-5-5-5h-65.968c-2.761,0-5,2.239-5,5S330.271,139.6,333.032,139.6z"/>
	<path d="M333.032,160.2H399c2.761,0,5-2.239,5-5s-2.239-5-5-5h-65.968c-2.761,0-5,2.239-5,5S330.271,160.2,333.032,160.2z"/>
	<path d="M333.032,180.8H399c2.761,0,5-2.239,5-5s-2.239-5-5-5h-65.968c-2.761,0-5,2.239-5,5S330.271,180.8,333.032,180.8z"/>
	<path d="M333.032,201.4H399c2.761,0,5-2.239,5-5s-2.239-5-5-5h-65.968c-2.761,0-5,2.239-5,5S330.271,201.4,333.032,201.4z"/>
	<path d="M333.032,222H399c2.761,0,5-2.239,5-5s-2.239-5-5-5h-65.968c-2.761,0-5,2.239-5,5S330.271,222,333.032,222z"/>
	<path d="M333.032,325H399c2.761,0,5-2.239,5-5v-82.4c0-2.761-2.239-5-5-5h-65.968c-2.761,0-5,2.239-5,5V320
		C328.032,322.761,330.271,325,333.032,325z M338.032,242.6H394V315h-55.968V242.6z"/>
</g>
<g>
</g>
<g>
</g>
<g>
</g>
<g>
</g>
<g>
</g>
<g>
</g>
<g>
</g>
<g>
</g>
<g>
</g>
<g>
</g>
<g>
</g>
<g>
</g>
<g>
</g>
<g>
</g>
<g>
</g>
</svg>
