<?xml version="1.0" encoding="UTF-8" standalone="no"?>
<svg width="92px" height="88px" viewBox="0 0 92 88" version="1.1" xmlns="http://www.w3.org/2000/svg" xmlns:xlink="http://www.w3.org/1999/xlink">
    <!-- Generator: Sketch 3.7.2 (28276) - http://www.bohemiancoding.com/sketch -->
    <title>Combined Shape</title>
    <desc>Created with Sketch.</desc>
    <defs></defs>
    <g id="Page-1" stroke="none" stroke-width="1" fill="none" fill-rule="evenodd">
        <path d="M30.41,0.61 C37.93,0.56 45.45,0.51 52.97,0.64 C63.26,26.64 73.84,52.54 84.27,78.49 C85.32,81.46 88.69,82.23 91.42,82.78 C91.42,84.33 91.43,85.88 91.43,87.43 C77.85,87.42 64.27,87.44 50.69,87.42 C50.69,85.86 50.7,84.31 50.7,82.76 C54.1,82.5 58.48,82.7 60.5,79.35 C61.28,76.75 60.41,74.04 59.45,71.62 C58.01,68.03 56.57,64.44 55.13,60.86 C44.64,60.82 34.16,60.89 23.67,60.83 C21.78,65.24 20.14,69.75 18.41,74.22 C17.69,76.19 16.92,78.81 18.66,80.49 C20.87,82.37 23.99,82.32 26.71,82.74 C26.72,84.3 26.72,85.86 26.73,87.43 C18.07,87.42 9.41,87.45 0.75,87.41 C0.75,85.87 0.76,84.33 0.76,82.8 C3.41,82.25 6.72,81.6 7.73,78.69 C16.67,55.85 25.62,33 34.43,10.11 C32.98,6.99 31.81,3.75 30.41,0.61 Z M26.8,52.51 C30.82,41.83 35.08,31.23 39.02,20.52 C43.27,31.19 47.55,41.85 51.81,52.51 C43.47,52.55 35.14,52.55 26.8,52.51 Z" id="Combined-Shape" fill="#231F20"></path>
    </g>
</svg>